<svg width="50" height="50" viewBox="0 0 50 50" fill="none" xmlns="http://www.w3.org/2000/svg">
<path d="M37.1042 11.4376V12.9792L29.7292 8.70841C26.9375 7.10425 23.0417 7.10425 20.2708 8.70841L12.8958 13.0001V11.4376C12.8958 6.75008 15.4583 4.16675 20.1458 4.16675H29.8542C34.5417 4.16675 37.1042 6.75008 37.1042 11.4376Z" fill="#079B09"/>
<path d="M37.1667 16.6042L36.875 16.4583L34.0417 14.8333L28.1667 11.4375C26.375 10.3958 23.625 10.3958 21.8333 11.4375L15.9583 14.8125L13.125 16.4792L12.75 16.6667C9.10416 19.125 8.85416 19.5833 8.85416 23.5208V32.9375C8.85416 36.875 9.10416 37.3333 12.8333 39.8542L21.8333 45.0417C22.7292 45.5833 23.8542 45.8125 25 45.8125C26.125 45.8125 27.2708 45.5625 28.1667 45.0417L37.25 39.7917C40.9167 37.3333 41.1458 36.8958 41.1458 32.9375V23.5208C41.1458 19.5833 40.8958 19.125 37.1667 16.6042ZM30.8125 28.125L29.5417 29.6875C29.3333 29.9167 29.1875 30.3542 29.2083 30.6667L29.3333 32.6667C29.4167 33.8958 28.5417 34.5208 27.3958 34.0833L25.5417 33.3333C25.25 33.2292 24.7708 33.2292 24.4792 33.3333L22.625 34.0625C21.4792 34.5208 20.6042 33.875 20.6875 32.6458L20.8125 30.6458C20.8333 30.3333 20.6875 29.8958 20.4792 29.6667L19.1875 28.125C18.3958 27.1875 18.75 26.1458 19.9375 25.8333L21.875 25.3333C22.1875 25.25 22.5417 24.9583 22.7083 24.7083L23.7917 23.0417C24.4583 22 25.5208 22 26.2083 23.0417L27.2917 24.7083C27.4583 24.9792 27.8333 25.25 28.125 25.3333L30.0625 25.8333C31.25 26.1458 31.6042 27.1875 30.8125 28.125Z" fill="#079B09"/>
</svg>
