<svg width="50" height="50" viewBox="0 0 50 50" fill="none" xmlns="http://www.w3.org/2000/svg">
<path d="M5.375 39.6042L5.33333 39.6459C4.77083 38.4167 4.41666 37.0209 4.27083 35.4792C4.41666 37.0001 4.81249 38.3751 5.375 39.6042Z" fill="#079B09"/>
<path d="M18.75 21.6249C21.4884 21.6249 23.7083 19.405 23.7083 16.6666C23.7083 13.9282 21.4884 11.7083 18.75 11.7083C16.0116 11.7083 13.7917 13.9282 13.7917 16.6666C13.7917 19.405 16.0116 21.6249 18.75 21.6249Z" fill="#079B09"/>
<path d="M33.7292 4.16675H16.2708C8.6875 4.16675 4.16667 8.68758 4.16667 16.2709V33.7292C4.16667 36.0001 4.5625 37.9792 5.33334 39.6459C7.125 43.6042 10.9583 45.8334 16.2708 45.8334H33.7292C41.3125 45.8334 45.8333 41.3126 45.8333 33.7292V28.9584V16.2709C45.8333 8.68758 41.3125 4.16675 33.7292 4.16675ZM42.4375 26.0417C40.8125 24.6459 38.1875 24.6459 36.5625 26.0417L27.8958 33.4792C26.2708 34.8751 23.6458 34.8751 22.0208 33.4792L21.3125 32.8959C19.8333 31.6042 17.4792 31.4792 15.8125 32.6042L8.02084 37.8334C7.5625 36.6667 7.29167 35.3126 7.29167 33.7292V16.2709C7.29167 10.3959 10.3958 7.29175 16.2708 7.29175H33.7292C39.6042 7.29175 42.7083 10.3959 42.7083 16.2709V26.2709L42.4375 26.0417Z" fill="#079B09"/>
</svg>
