<svg width="50" height="50" viewBox="0 0 50 50" fill="none" xmlns="http://www.w3.org/2000/svg">
<path d="M45.7917 32.6042C44.0833 30.5001 41.4792 29.1667 38.5417 29.1667C36.3333 29.1667 34.2917 29.9376 32.6875 31.2292C30.5208 32.9376 29.1667 35.5834 29.1667 38.5417C29.1667 41.4792 30.5 44.0834 32.6042 45.7917C34.2083 47.1251 36.2917 47.9167 38.5417 47.9167C40.9167 47.9167 43.0625 47.0209 44.7292 45.5834C46.6667 43.8542 47.9167 41.3542 47.9167 38.5417C47.9167 36.2917 47.125 34.2084 45.7917 32.6042ZM40.6875 39.1251C40.6875 39.6667 40.3958 40.1876 39.9375 40.4584L37 42.2084C36.75 42.3542 36.4792 42.4376 36.1875 42.4376C35.6667 42.4376 35.1458 42.1667 34.8542 41.6876C34.4167 40.9376 34.6458 39.9792 35.3958 39.5417L37.5625 38.2501V35.6251C37.5625 34.7709 38.2708 34.0626 39.125 34.0626C39.9792 34.0626 40.6875 34.7709 40.6875 35.6251V39.1251Z" fill="#079B09"/>
<path d="M30.6875 12.2084V5.20841C30.6875 4.62508 30.2292 4.16675 29.6458 4.16675H20.3542C19.7708 4.16675 19.3125 4.62508 19.3125 5.20841V12.2084C19.3125 12.7917 19.7708 13.2501 20.3542 13.2501H29.6458C30.2292 13.2501 30.6875 12.7917 30.6875 12.2084Z" fill="#079B09"/>
<path d="M15.1042 4.20824C9.77083 4.54157 6.125 7.29157 4.77083 11.8749C4.5625 12.5624 5.0625 13.2499 5.77083 13.2499H15.1458C15.7292 13.2499 16.1875 12.7916 16.1875 12.2082V5.24991C16.1875 4.66657 15.6875 4.16657 15.1042 4.20824Z" fill="#079B09"/>
<path d="M34.8958 4.18749C40.2292 4.52082 43.875 7.27082 45.2292 11.8542C45.4375 12.5417 44.9375 13.2292 44.2292 13.2292H34.8542C34.2708 13.2292 33.8125 12.7708 33.8125 12.1875V5.22916C33.8125 4.64582 34.3125 4.14582 34.8958 4.18749Z" fill="#079B09"/>
<path d="M45.8333 17.4167V26.5417C45.8333 27.3125 45.0208 27.8125 44.3333 27.4583C42.5833 26.5417 40.5833 26.0417 38.5417 26.0417C35.1875 26.0417 31.9167 27.4167 29.5833 29.8125C27.2917 32.1458 26.0417 35.25 26.0417 38.5417C26.0417 40.2292 26.7083 42.3958 27.5417 44.2083C27.875 44.9375 27.375 45.8333 26.5625 45.8333H16.2708C9.58333 45.8333 4.16666 40.4167 4.16666 33.7292V17.4167C4.16666 16.8333 4.625 16.375 5.20833 16.375H44.7917C45.375 16.375 45.8333 16.8333 45.8333 17.4167Z" fill="#079B09"/>
</svg>
